<svg version="1.1" xmlns="http://www.w3.org/2000/svg" xmlns:xlink="http://www.w3.org/1999/xlink" width="512.000000pt" height="512.000000pt" viewBox="0,0,256,256"><g fill="#a44891" fill-rule="nonzero" stroke="none" stroke-width="1" stroke-linecap="butt" stroke-linejoin="miter" stroke-miterlimit="10" stroke-dasharray="" stroke-dashoffset="0" font-family="none" font-weight="none" font-size="none" text-anchor="none" style="mix-blend-mode: normal"><g transform="translate(-0.13089,0.13295) scale(0.5,0.5)"><g transform="translate(0,512) scale(0.1,-0.1)"><path d="M2678,3308c-5,-2042 1,-1880 -84,-2053c-75,-153 -188,-266 -339,-341c-127,-62 -196,-78 -340,-78c-140,0 -211,16 -330,74c-151,75 -273,196 -345,345c-58,121 -74,190 -74,330c-1,145 15,212 81,345c39,80 60,109 137,185c99,99 190,154 321,195c96,30 255,37 355,16c41,-9 81,-16 88,-16c9,0 12,91 12,419v420l-47,8c-27,4 -120,7 -208,7c-257,-1 -460,-47 -682,-154c-878,-422 -1176,-1491 -641,-2298c93,-140 293,-341 428,-431c418,-277 921,-349 1400,-199c429,134 812,485 985,901c44,108 78,227 101,352c16,92 17,178 15,1103c-2,551 0,1002 4,1002c4,0 24,-13 44,-29c112,-89 340,-210 513,-275c195,-72 471,-126 648,-126h90l-2,413l-3,412l-97,6c-306,20 -585,148 -814,374c-224,220 -355,502 -380,818l-7,87h-412h-413z"></path></g></g></g></svg>